<?xml version="1.0" encoding="iso-8859-1"?>
<!-- Generator: Adobe Illustrator 19.0.0, SVG Export Plug-In . SVG Version: 6.00 Build 0)  -->
<svg version="1.1" id="Layer_1" xmlns="http://www.w3.org/2000/svg" xmlns:xlink="http://www.w3.org/1999/xlink" x="0px" y="0px"
	 viewBox="0 0 512 512" style="enable-background:new 0 0 512 512;" xml:space="preserve">
<circle style="fill:#FFA91F;" cx="256" cy="255.996" r="255.996"/>
<path style="fill:#FF8800;" d="M510.078,287.454L266.25,43.625h-20.493v9.36C217.9,69.162,98.409,147.325,98.409,297.91
	l28.179,26.773H62.451l59.241,106.42l73.644,73.645c19.451,4.727,39.762,7.251,60.667,7.251
	C386.739,512,494.573,413.998,510.078,287.454z"/>
<path style="fill:#FF3C62;" d="M251.533,49.781c0,0-153.124,77.68-153.124,248.128h153.124V49.781z"/>
<path style="fill:#1B2DDD;" d="M260.474,92.656c0,0,136.359,64.257,136.359,205.255H260.474V92.656z"/>
<polygon style="fill:#FFFFFF;" points="266.25,324.683 266.25,43.625 245.757,43.625 245.757,324.683 62.451,324.683 
	121.692,431.104 390.316,431.104 449.556,324.683 "/>
<polygon style="fill:#E1E1E3;" points="449.556,324.683 266.25,324.683 266.25,43.625 256,43.625 256,431.104 390.316,431.104 "/>
<polygon style="fill:#D8D8DA;" points="92.071,377.893 121.692,431.104 390.316,431.104 419.936,377.893 "/>
<polygon style="fill:#C8C6CC;" points="419.936,377.893 256,377.893 256,431.104 390.316,431.104 "/>
<g>
</g>
<g>
</g>
<g>
</g>
<g>
</g>
<g>
</g>
<g>
</g>
<g>
</g>
<g>
</g>
<g>
</g>
<g>
</g>
<g>
</g>
<g>
</g>
<g>
</g>
<g>
</g>
<g>
</g>
</svg>
